<?xml version="1.0" encoding="utf-8"?>
<!-- Generator: Adobe Illustrator 16.0.0, SVG Export Plug-In . SVG Version: 6.00 Build 0)  -->
<!DOCTYPE svg PUBLIC "-//W3C//DTD SVG 1.1//EN" "http://www.w3.org/Graphics/SVG/1.1/DTD/svg11.dtd">
<svg version="1.1" id="Layer_1" xmlns="http://www.w3.org/2000/svg" xmlns:xlink="http://www.w3.org/1999/xlink" x="0px" y="0px"
	 width="288.678px" height="41.051px" viewBox="5.909 4.476 288.678 41.051" enable-background="new 5.909 4.476 288.678 41.051"
	 xml:space="preserve">
<g>
	<g>
		<path fill="#FFFFFF" d="M82.422,36.84l-4.977-7.583c-0.632,0.045-1.139,0.068-1.522,0.068h-6.3v7.515h-2.707V13.143h9.006
			c2.958,0,5.254,0.692,6.89,2.079c1.635,1.389,2.452,3.349,2.452,5.877c0,1.939-0.461,3.565-1.387,4.874
			c-0.925,1.31-2.247,2.235-3.959,2.776l5.586,8.091H82.422z M75.924,26.816c2.167,0,3.83-0.479,4.993-1.438
			c1.166-0.959,1.743-2.363,1.743-4.214c0-1.806-0.577-3.179-1.743-4.114c-1.163-0.936-2.826-1.404-4.993-1.404h-6.3v11.169H75.924z
			"/>
		<path fill="#FFFFFF" d="M98.167,13.143h2.706V36.84h-2.706V13.143z"/>
		<path fill="#FFFFFF" d="M130.546,15.222c1.614,1.389,2.421,3.349,2.421,5.877c0,2.594-0.807,4.613-2.421,6.057
			c-1.615,1.447-3.889,2.17-6.82,2.17h-6.198v7.515h-2.706V13.143h8.904C126.657,13.143,128.931,13.835,130.546,15.222z
			 M128.599,25.38c1.173-0.959,1.762-2.363,1.762-4.214c0-1.806-0.588-3.179-1.762-4.114c-1.174-0.935-2.831-1.404-4.974-1.404
			h-6.097v11.17h6.097C125.768,26.816,127.425,26.339,128.599,25.38z"/>
		<path fill="#FFFFFF" d="M159.965,15.222c1.611,1.389,2.42,3.349,2.42,5.877c0,2.594-0.809,4.613-2.42,6.057
			c-1.613,1.447-3.888,2.17-6.822,2.17h-6.196v7.515h-2.708V13.143h8.904C156.077,13.143,158.352,13.835,159.965,15.222z
			 M158.02,25.38c1.174-0.959,1.76-2.363,1.76-4.214c0-1.806-0.586-3.179-1.76-4.114c-1.172-0.935-2.832-1.404-4.978-1.404h-6.095
			v11.17h6.095C155.186,26.816,156.846,26.339,158.02,25.38z"/>
		<path fill="#FFFFFF" d="M173.659,13.143h2.706v21.192h10.396v2.505h-13.102V13.143z"/>
		<path fill="#FFFFFF" d="M197.932,13.143h16.082v2.505h-13.375v7.956h11.951v2.471h-11.951v8.261h13.814v2.505h-16.521V13.143z"/>
		<path fill="#FFFFFF" d="M223.527,13.143h18.181v2.505h-7.755V36.84h-2.707V15.647h-7.719V13.143z"/>
		<path fill="#FFFFFF" d="M249.188,13.143h18.184v2.505h-7.755V36.84h-2.709V15.647h-7.72V13.143L249.188,13.143z"/>
		<path fill="#FFFFFF" d="M278.064,13.143h16.082v2.505h-13.371v7.956h11.951v2.471h-11.951v8.261h13.812v2.505h-16.522V13.143z"/>
	</g>
	<path fill="#FFFFFF" d="M35.786,38.3l-5.078-6.95c3.317-2.785,5.546-7.168,5.546-11.894c0-8.121-6.227-14.98-13.599-14.98h-1.547
		h-5.119h-3.723c-3.504,0-6.356,2.849-6.356,6.353c0,3.507,2.852,6.354,6.356,6.354h8.068c1.071,0,2.294,1.092,2.294,2.047
		c0,1.055-1.076,1.854-2.502,1.854h-6.632c-0.631,0-1.145,0.513-1.145,1.145s0.513,1.147,1.145,1.147h6.632
		c2.731,0,4.793-1.784,4.793-4.146c0-2.229-2.228-4.336-4.585-4.336h-8.068c-2.241,0-4.065-1.82-4.065-4.064
		c0-2.241,1.824-4.064,4.065-4.064h3.723h5.119h1.547c6.129,0,11.307,5.812,11.307,12.691c0,6.764-5.283,12.693-11.307,12.693
		h-9.311c-0.631,0-1.144,0.512-1.144,1.145c0,0.023,0.005,0.047,0.008,0.07c-0.003,0.025-0.008,0.051-0.008,0.074v7.303
		c0,1.373-0.897,2.49-2,2.49c-1.102,0-2-1.117-2-2.49v-7.9c0-2.244,1.824-4.066,4.065-4.066h8.842c0.037,0,0.071-0.008,0.105-0.012
		c5.177-0.1,9.36-4.332,9.36-9.533c0-5.265-4.28-9.545-9.544-9.545H12.62c-0.631,0-1.142,0.514-1.142,1.145s0.51,1.145,1.142,1.145
		h8.408c3.999,0,7.255,3.254,7.255,7.256c0,3.998-3.257,7.252-7.255,7.252h-8.069h-0.694c-3.018,0-5.543,2.115-6.19,4.938
		c-0.103,0.171-0.166,0.372-0.166,0.585v8.736c0,2.636,1.926,4.779,4.291,4.779c2.368,0,4.291-2.145,4.291-4.779v-6.305h7.963
		l6.361,9.054c0.75,1.003,1.805,1.688,2.973,1.934c0.312,0.068,0.623,0.101,0.931,0.101c0.889,0,1.731-0.272,2.441-0.803
		c0.95-0.711,1.528-1.789,1.628-3.033C36.888,40.499,36.527,39.292,35.786,38.3z M33.792,42.886c-0.421,0.31-0.96,0.421-1.531,0.298
		c-0.623-0.129-1.194-0.509-1.589-1.035l-5.601-7.974c1.321-0.284,2.591-0.8,3.77-1.5l5.104,6.984
		c0.416,0.556,0.616,1.211,0.566,1.845C34.459,42.085,34.207,42.575,33.792,42.886z"/>
</g>
</svg>
